<svg xmlns="http://www.w3.org/2000/svg" viewBox="150 155 725 605" preserveAspectRatio="xMidYMid meet">
<path d="M 591,710 L 591,711 L 592,711 L 596,715 L 596,716 L 597,717 L 597,718 L 599,720 L 599,721 L 601,723 L 601,724 L 603,726 L 603,727 L 604,728 L 604,729 L 606,731 L 605,732 L 605,736 L 606,737 L 606,742 L 605,743 L 605,744 L 604,745 L 602,745 L 602,746 L 615,746 L 615,745 L 613,745 L 611,743 L 611,731 L 612,730 L 612,729 L 613,728 L 613,727 L 615,725 L 615,724 L 616,723 L 616,722 L 618,720 L 618,719 L 619,718 L 619,717 L 621,715 L 621,714 L 624,711 L 625,711 L 625,710 L 616,710 L 616,711 L 617,711 L 619,713 L 618,714 L 618,715 L 617,716 L 617,717 L 616,718 L 616,719 L 615,720 L 615,721 L 613,723 L 613,724 L 611,726 L 610,726 L 609,725 L 609,724 L 607,722 L 607,721 L 606,720 L 606,719 L 604,717 L 604,716 L 602,714 L 602,712 L 603,711 L 604,711 L 604,710 Z" fill="#b99e7e"/><path d="M 553,710 L 553,711 L 555,711 L 556,712 L 556,744 L 555,745 L 553,745 L 553,746 L 579,746 L 579,742 L 580,741 L 580,737 L 579,737 L 579,738 L 578,739 L 578,740 L 575,743 L 574,743 L 573,744 L 563,744 L 562,743 L 562,713 L 564,711 L 566,711 L 566,710 Z" fill="#b99e7e"/><path d="M 521,710 L 521,711 L 522,711 L 524,713 L 524,744 L 523,745 L 521,745 L 521,746 L 533,746 L 533,745 L 532,745 L 530,743 L 530,713 L 532,711 L 533,711 L 533,710 Z" fill="#b99e7e"/><path d="M 436,710 L 436,711 L 438,711 L 439,712 L 439,713 L 440,714 L 440,742 L 439,743 L 439,744 L 438,745 L 436,745 L 436,746 L 449,746 L 449,745 L 447,745 L 445,743 L 445,713 L 447,711 L 449,711 L 449,710 Z" fill="#b99e7e"/><path d="M 480,710 L 479,711 L 478,711 L 477,712 L 476,712 L 472,716 L 472,717 L 470,719 L 470,721 L 469,722 L 469,724 L 468,725 L 468,731 L 469,732 L 469,735 L 470,736 L 470,738 L 472,740 L 472,741 L 473,742 L 474,742 L 477,745 L 478,745 L 479,746 L 481,746 L 482,747 L 493,747 L 494,746 L 496,746 L 497,745 L 498,745 L 499,744 L 500,744 L 501,743 L 501,740 L 502,739 L 502,737 L 501,737 L 501,738 L 496,743 L 495,743 L 494,744 L 493,744 L 492,745 L 487,745 L 486,744 L 484,744 L 483,743 L 482,743 L 478,739 L 478,738 L 477,737 L 477,736 L 476,735 L 476,733 L 475,732 L 475,723 L 476,722 L 476,720 L 477,719 L 477,718 L 483,712 L 485,712 L 486,711 L 490,711 L 491,712 L 494,712 L 499,717 L 499,719 L 501,719 L 501,711 L 498,711 L 497,710 L 495,710 L 494,709 L 484,709 L 483,710 Z" fill="#b99e7e"/><path d="M 403,709 L 402,710 L 400,710 L 399,711 L 398,711 L 395,714 L 395,715 L 394,716 L 394,722 L 395,723 L 395,724 L 396,725 L 396,726 L 398,728 L 399,728 L 401,730 L 402,730 L 403,731 L 404,731 L 405,732 L 406,732 L 407,733 L 408,733 L 411,736 L 411,737 L 412,738 L 412,739 L 411,740 L 411,742 L 409,744 L 408,744 L 407,745 L 402,745 L 401,744 L 400,744 L 395,739 L 395,737 L 394,737 L 394,746 L 400,746 L 401,747 L 409,747 L 410,746 L 411,746 L 412,745 L 413,745 L 415,743 L 415,742 L 416,741 L 416,740 L 417,739 L 417,733 L 416,732 L 416,731 L 413,728 L 412,728 L 410,726 L 409,726 L 408,725 L 406,725 L 405,724 L 404,724 L 402,722 L 401,722 L 400,721 L 400,720 L 399,719 L 399,715 L 402,712 L 403,712 L 404,711 L 407,711 L 408,712 L 409,712 L 410,713 L 411,713 L 412,714 L 412,715 L 414,717 L 414,718 L 415,718 L 415,711 L 414,710 L 410,710 L 409,709 Z" fill="#b99e7e"/><path d="M 676,586 L 676,588 L 680,588 L 682,589 L 686,593 L 686,669 L 683,672 L 681,672 L 680,673 L 676,673 L 676,675 L 712,675 L 712,673 L 708,673 L 707,672 L 705,672 L 703,670 L 703,666 L 702,665 L 702,633 L 704,631 L 706,633 L 708,633 L 712,637 L 712,638 L 714,640 L 716,644 L 719,647 L 719,648 L 721,650 L 723,654 L 726,657 L 728,661 L 731,664 L 731,665 L 736,671 L 737,671 L 739,673 L 743,675 L 766,675 L 766,673 L 763,673 L 762,672 L 760,672 L 758,671 L 748,661 L 748,660 L 745,657 L 743,653 L 737,646 L 737,645 L 733,640 L 732,637 L 727,631 L 739,625 L 743,621 L 747,613 L 747,610 L 748,609 L 747,608 L 748,607 L 747,606 L 747,601 L 746,600 L 746,598 L 745,596 L 739,590 L 735,588 L 733,588 L 732,587 L 728,587 L 727,586 Z" fill="#b99e7e"/><path d="M 452,586 L 452,588 L 458,589 L 462,593 L 463,603 L 462,604 L 462,613 L 461,614 L 462,617 L 460,623 L 461,626 L 459,635 L 459,646 L 457,653 L 458,654 L 456,664 L 457,666 L 454,671 L 447,673 L 447,675 L 473,675 L 473,673 L 469,673 L 464,669 L 464,653 L 465,652 L 464,647 L 466,639 L 465,636 L 466,635 L 467,612 L 469,607 L 502,676 L 504,675 L 510,659 L 516,648 L 522,632 L 534,607 L 536,611 L 536,620 L 537,621 L 540,669 L 537,672 L 531,673 L 531,675 L 565,675 L 565,673 L 560,672 L 557,669 L 556,655 L 555,654 L 556,653 L 554,644 L 554,632 L 552,622 L 552,611 L 551,610 L 552,609 L 551,608 L 551,592 L 557,588 L 561,588 L 561,586 L 536,586 L 521,622 L 508,648 L 506,647 L 500,635 L 500,633 L 480,592 L 479,587 L 478,586 Z" fill="#b99e7e"/><path d="M 342,586 L 342,588 L 345,588 L 346,589 L 348,589 L 350,591 L 350,592 L 351,593 L 351,596 L 352,597 L 352,666 L 351,667 L 351,669 L 348,672 L 346,672 L 345,673 L 342,673 L 342,675 L 410,675 L 410,668 L 411,667 L 411,661 L 412,660 L 412,655 L 413,654 L 413,653 L 411,653 L 410,654 L 410,656 L 409,657 L 407,662 L 404,665 L 403,665 L 401,667 L 400,667 L 399,668 L 397,668 L 396,669 L 391,669 L 390,670 L 372,670 L 371,669 L 370,669 L 368,667 L 368,593 L 370,590 L 371,590 L 374,588 L 378,588 L 378,586 Z" fill="#b99e7e"/><path d="M 263,586 L 263,588 L 269,589 L 271,591 L 272,593 L 272,596 L 273,597 L 273,602 L 272,603 L 272,669 L 269,672 L 263,673 L 263,675 L 331,675 L 331,668 L 332,667 L 332,662 L 333,661 L 333,657 L 334,656 L 334,654 L 332,654 L 331,655 L 330,660 L 323,667 L 321,668 L 313,669 L 312,670 L 293,670 L 289,667 L 289,633 L 290,632 L 311,632 L 312,633 L 314,633 L 318,637 L 319,639 L 319,642 L 321,642 L 321,617 L 319,618 L 319,620 L 317,624 L 312,627 L 290,627 L 289,626 L 289,592 L 290,591 L 312,591 L 313,592 L 315,591 L 316,592 L 319,592 L 324,596 L 325,600 L 326,601 L 326,604 L 328,604 L 328,586 Z" fill="#b99e7e"/><path d="M 246,600 L 241,595 L 240,595 L 235,591 L 234,591 L 233,590 L 231,590 L 230,589 L 228,589 L 227,588 L 225,588 L 224,587 L 219,587 L 218,586 L 212,586 L 211,585 L 207,585 L 206,586 L 161,586 L 161,588 L 163,588 L 164,589 L 166,589 L 167,590 L 168,590 L 170,593 L 170,668 L 169,669 L 169,670 L 167,672 L 165,672 L 164,673 L 161,673 L 161,675 L 195,675 L 196,676 L 197,675 L 213,675 L 214,674 L 218,674 L 219,673 L 222,673 L 223,672 L 225,672 L 226,671 L 227,671 L 228,670 L 229,670 L 230,669 L 231,669 L 232,668 L 235,667 L 238,664 L 239,664 L 244,659 L 244,658 L 247,655 L 247,654 L 249,652 L 249,651 L 251,648 L 251,646 L 252,645 L 252,643 L 253,642 L 253,638 L 254,637 L 254,618 L 253,617 L 253,614 L 252,613 L 252,611 L 250,608 L 250,606 L 248,604 L 248,603 L 246,601 Z" fill="#b99e7e"/><path d="M 793,587 L 792,588 L 791,588 L 790,589 L 789,589 L 788,590 L 785,591 L 783,593 L 782,593 L 772,603 L 772,604 L 771,605 L 771,606 L 770,607 L 770,608 L 769,609 L 769,610 L 767,613 L 767,615 L 766,616 L 766,618 L 765,619 L 765,622 L 764,623 L 764,624 L 765,625 L 764,626 L 764,639 L 765,640 L 765,644 L 766,645 L 766,647 L 767,648 L 767,650 L 769,653 L 769,655 L 771,657 L 772,660 L 780,668 L 781,668 L 783,670 L 784,670 L 786,672 L 787,672 L 788,673 L 790,673 L 793,675 L 796,675 L 797,676 L 799,676 L 800,677 L 801,676 L 802,677 L 815,677 L 816,678 L 817,678 L 818,677 L 823,677 L 824,676 L 828,676 L 829,675 L 831,675 L 832,674 L 834,674 L 835,673 L 836,673 L 837,672 L 840,671 L 842,669 L 843,669 L 846,666 L 847,666 L 853,660 L 853,659 L 855,657 L 856,654 L 858,652 L 858,650 L 860,647 L 860,645 L 861,644 L 861,641 L 862,640 L 862,635 L 863,634 L 862,633 L 862,619 L 861,618 L 861,615 L 860,614 L 860,612 L 859,611 L 859,610 L 858,609 L 858,608 L 857,607 L 856,604 L 854,602 L 854,601 L 846,593 L 845,593 L 843,591 L 842,591 L 841,590 L 840,590 L 839,589 L 838,589 L 835,587 L 833,587 L 832,586 L 830,586 L 829,585 L 824,585 L 823,584 L 804,584 L 803,585 L 800,585 L 799,586 L 796,586 L 795,587 Z" fill="#b99e7e"/><path d="M 600,587 L 599,588 L 598,588 L 597,589 L 596,589 L 595,590 L 592,591 L 590,593 L 589,593 L 585,597 L 584,597 L 583,598 L 583,599 L 578,604 L 578,605 L 577,606 L 577,607 L 575,610 L 575,612 L 573,615 L 573,618 L 572,619 L 572,621 L 571,622 L 571,639 L 572,640 L 572,644 L 573,645 L 573,648 L 575,651 L 575,653 L 576,654 L 576,655 L 578,657 L 579,660 L 588,669 L 589,669 L 591,671 L 592,671 L 593,672 L 594,672 L 597,674 L 599,674 L 600,675 L 602,675 L 603,676 L 608,676 L 609,677 L 613,677 L 614,678 L 616,678 L 617,677 L 629,677 L 630,676 L 634,676 L 635,675 L 637,675 L 638,674 L 640,674 L 641,673 L 642,673 L 643,672 L 644,672 L 645,671 L 648,670 L 650,668 L 651,668 L 660,659 L 661,656 L 663,654 L 663,653 L 665,650 L 665,648 L 667,645 L 667,642 L 668,641 L 668,635 L 669,634 L 669,626 L 668,625 L 668,619 L 667,618 L 667,615 L 666,614 L 666,612 L 665,611 L 665,610 L 664,609 L 664,608 L 663,607 L 662,604 L 660,602 L 660,601 L 652,593 L 651,593 L 649,591 L 648,591 L 647,590 L 646,590 L 645,589 L 644,589 L 641,587 L 639,587 L 638,586 L 636,586 L 635,585 L 631,585 L 630,584 L 611,584 L 610,585 L 607,585 L 606,586 L 603,586 L 602,587 Z" fill="#b99e7e"/><path d="M 511,164 L 501,175 L 499,188 L 490,188 L 484,193 L 483,199 L 490,205 L 480,214 L 480,218 L 489,220 L 492,219 L 494,214 L 496,215 L 495,219 L 488,224 L 474,224 L 472,222 L 475,216 L 472,213 L 467,213 L 463,207 L 458,206 L 454,215 L 449,219 L 454,225 L 450,229 L 445,229 L 444,227 L 447,224 L 445,217 L 440,213 L 436,214 L 435,207 L 428,202 L 421,205 L 419,212 L 421,217 L 416,221 L 409,218 L 401,220 L 407,229 L 407,233 L 412,237 L 411,241 L 417,248 L 418,255 L 406,266 L 393,290 L 392,303 L 400,320 L 402,335 L 411,346 L 415,359 L 410,362 L 417,365 L 417,370 L 403,396 L 405,404 L 414,409 L 404,416 L 399,434 L 404,436 L 409,431 L 412,442 L 406,455 L 398,461 L 394,481 L 398,488 L 397,493 L 412,507 L 420,504 L 431,505 L 437,500 L 443,501 L 464,493 L 471,513 L 464,520 L 461,530 L 450,544 L 463,549 L 480,550 L 512,543 L 582,511 L 595,508 L 622,508 L 633,500 L 638,490 L 638,479 L 632,466 L 620,456 L 611,453 L 604,444 L 602,449 L 594,436 L 598,411 L 613,401 L 626,382 L 629,368 L 636,362 L 645,340 L 643,321 L 631,299 L 631,291 L 619,270 L 604,259 L 606,247 L 622,220 L 614,218 L 608,222 L 600,219 L 603,216 L 602,206 L 600,203 L 594,202 L 587,208 L 587,213 L 580,214 L 573,224 L 577,231 L 572,231 L 567,227 L 571,223 L 571,218 L 566,215 L 563,206 L 546,215 L 548,222 L 545,225 L 531,224 L 529,220 L 538,219 L 541,216 L 533,205 L 538,202 L 539,195 L 531,188 L 523,188 L 523,178 Z" fill="#b99e7e"/>
</svg>